HIERARCHY
ROOT Hips
{
	OFFSET 0.00000 0.00000 0.00000
	CHANNELS 6 Xposition Yposition Zposition Zrotation Yrotation Xrotation 
	JOINT LHipJoint
	{
		OFFSET 0 0 0
		CHANNELS 3 Zrotation Yrotation Xrotation
		JOINT LeftHip
		{
			OFFSET 1.76014 -1.80163 0.38499
			CHANNELS 3 Zrotation Yrotation Xrotation
			JOINT LeftKnee
			{
				OFFSET 2.46817 -6.78126 0.00000
				CHANNELS 3 Zrotation Yrotation Xrotation
				JOINT LeftAnkle
				{
					OFFSET 2.79348 -7.67503 0.00000
					CHANNELS 3 Zrotation Yrotation Xrotation
					JOINT LeftToe
					{
						OFFSET 0.09421 -0.25885 1.91403
						CHANNELS 3 Zrotation Yrotation Xrotation
						End Site
						{
							OFFSET 0.00000 -0.00000 0.97975
						}
					}
				}
			}
		}
	}
	JOINT RHipJoint
	{
		OFFSET 0 0 0
		CHANNELS 3 Zrotation Yrotation Xrotation
		JOINT RightHip
		{
			OFFSET -1.77926 -1.80163 0.38499
			CHANNELS 3 Zrotation Yrotation Xrotation
			JOINT RightKnee
			{
				OFFSET -2.51996 -6.92353 0.00000
				CHANNELS 3 Zrotation Yrotation Xrotation
				JOINT RightAnkle
				{
					OFFSET -2.76109 -7.58603 0.00000
					CHANNELS 3 Zrotation Yrotation Xrotation
					JOINT RightToe
					{
						OFFSET -0.08067 -0.22163 1.86812
						CHANNELS 3 Zrotation Yrotation Xrotation
						End Site
						{
							OFFSET -0.00000 -0.00000 0.95558
						}
					}
				}
			}
		}
	}
	JOINT lowerback
	{
		OFFSET 0 0 0
		CHANNELS 3 Zrotation Yrotation Xrotation
		JOINT Chest
		{
			OFFSET 0.05537 1.92033 -0.03713
			CHANNELS 3 Zrotation Yrotation Xrotation
			JOINT Chest2
			{
				OFFSET 0.04452 1.90073 0.10860
				CHANNELS 3 Zrotation Yrotation Xrotation
				JOINT lowerneck
				{
					OFFSET 0 0 0
					CHANNELS 3 Zrotation Yrotation Xrotation
					JOINT Neck
					{
						OFFSET 0.00903 1.74649 0.02074
						CHANNELS 3 Zrotation Yrotation Xrotation
						JOINT Head
						{
							OFFSET -0.08608 1.67844 -0.12081
							CHANNELS 3 Zrotation Yrotation Xrotation
							End Site
							{
								OFFSET -0.03521 1.83380 -0.05059
							}
						}
					}
				}
				JOINT LeftCollar
				{
					OFFSET 0 0 0
					CHANNELS 3 Zrotation Yrotation Xrotation
					JOINT LeftShoulder
					{
						OFFSET 3.28197 0.84325 -0.19106
CHANNELS 3 Zrotation Xrotation Yrotation
						JOINT LeftElbow
						{
OFFSET 0 -5.243180 -0.000000
CHANNELS 3 Zrotation Xrotation Yrotation
							JOINT LeftWrist
							{
OFFSET 0 -2.989990 0.000000
CHANNELS 3 Zrotation Xrotation Yrotation
								JOINT lhand
								{
									OFFSET 0 0 0
CHANNELS 3 Zrotation Xrotation Yrotation
									JOINT LFingers
									{
OFFSET 0 -0.726740 0.000000
CHANNELS 3 Zrotation Xrotation Yrotation
										End Site
										{
OFFSET 0 -0.585920 0.000000
										}
									}
								}
								JOINT LThumb
								{
OFFSET 0 0.000000 0.000000
CHANNELS 3 Zrotation Xrotation Yrotation
									End Site
									{
OFFSET 0 -0.594870 0.594870
									}
								}
							}
						}
					}
				}
				JOINT RightCollar
				{
					OFFSET 0 0 0
					CHANNELS 3 Zrotation Yrotation Xrotation
					JOINT RightShoulder
					{
						OFFSET -3.30963 0.78377 0.14264
CHANNELS 3 Zrotation Xrotation Yrotation
						JOINT RightElbow
						{
OFFSET 0 -5.370450 0.000000
CHANNELS 3 Zrotation Xrotation Yrotation
							JOINT RightWrist
							{
OFFSET 0 -2.927920 0.000000
CHANNELS 3 Zrotation Xrotation Yrotation
								JOINT rhand
								{
									OFFSET 0 0 0
CHANNELS 3 Zrotation Xrotation Yrotation
									JOINT RFingers
									{
OFFSET 0 -0.784500 0.000000
CHANNELS 3 Zrotation Xrotation Yrotation
										End Site
										{
OFFSET 0 -0.632480 0.000000
										}
									}
								}
								JOINT RThumb
								{
OFFSET 0 0.000000 0.000000
CHANNELS 3 Zrotation Xrotation Yrotation
									End Site
									{
OFFSET 0 -0.642140 0.642140
									}
								}
							}
						}
					}
				}
			}
		}
	}
}
MOTION
Frames: 11
Frame Time: .0083333
0.2698 18.3088 0.2146 -2.9389 -3.7910 10.2655 0.0000 0.0000 0.0000 -14.6130 -28.5381 -3.8751 0.7874 5.6645 15.8140 -2.1631 25.4647 -15.4984 0.2242 -3.0481 -8.4127 0.0000 0.0000 0.0000 0.0000 0.0000 0.0000 0.0000 0.0000 0.0000 -0.0000 -0.0000 0.0000 -0.0000 -0.0000 0.0000 3.1460 -0.2409 -4.6005 2.9278 -0.4382 -3.0576 1.2257 -0.2402 -0.5659 3.2646 0.9515 -8.3896 -6.6151 1.6220 10.2503 -2.4728 0.5334 4.5228 -0.0000 0.0000 0.0000 -0.5716 4.3631 -13.9147 11.3589 -18.8362 1.8902 6.968 21.4613 -15.6387 0.0 0.0 0.0 -7.1250 0.0 0.0 -19.0942 44.836 -0.0803 -0.0000 0.0000 0.0000 -4.3469 7.7934 -3.2344 -16.1350 -25.7033 -3.7043 -2.9527 30.0817 -8.6113 0.0 0.0 0.0 7.1250 0.0 -0.0 17.1190 21.4781 10.1131
0.2700 18.3097 0.2134 -2.8892 -3.7822 10.2405 0.0000 0.0000 0.0000 -14.6878 -28.5693 -3.8089 0.7836 5.6513 15.7759 -2.1642 25.4851 -15.5881 0.2224 -3.0358 -8.3784 0.0000 0.0000 0.0000 0.0000 0.0000 0.0000 0.0000 0.0000 0.0000 -0.0000 -0.0000 0.0000 -0.0000 -0.0000 0.0000 3.0999 -0.2507 -4.5664 2.9105 -0.4477 -3.0581 1.2335 -0.2446 -0.5851 3.2955 0.9688 -8.4270 -6.6514 1.6474 10.3013 -2.4878 0.5436 4.5465 0.0000 -0.0000 0.0000 -0.5904 4.345 -14.1426 11.4663 -18.9995 1.925 6.9444 21.2594 -15.6737 0.0 0.0 0.0 -7.1250 0.0 0.0 -19.1276 44.8665 -0.0655 0.0000 -0.0000 0.0000 -4.2918 7.721 -2.798 -16.2213 -25.8198 -3.7418 -3.0192 29.8742 -8.5944 0.0 0.0 0.0 7.1250 0.0 -0.0 17.0745 21.4932 10.0782
0.2697 18.3103 0.2120 -2.7663 -3.7584 10.2057 0.0000 0.0000 0.0000 -14.8322 -28.5916 -3.7551 0.7794 5.6366 15.7335 -2.1627 25.4649 -15.5125 0.2213 -3.0282 -8.3573 0.0000 0.0000 0.0000 0.0000 0.0000 0.0000 0.0000 0.0000 0.0000 -0.0000 -0.0000 0.0000 -0.0000 -0.0000 0.0000 2.9614 -0.2622 -4.5471 2.8727 -0.4576 -3.0474 1.2717 -0.2478 -0.5837 3.3098 0.9789 -8.4244 -6.6552 1.6591 10.2864 -2.4905 0.5500 4.5423 -0.0000 0.0000 0.0000 -0.5718 4.3579 -14.5693 11.5912 -19.1887 1.9658 7.0166 20.9966 -15.88 0.0 0.0 0.0 -7.1250 0.0 0.0 -19.1380 45.0704 0.0345 -0.0000 0.0000 0.0000 -4.2191 7.6358 -2.3286 -16.3185 -25.9505 -3.7842 -3.0858 29.6182 -8.4922 0.0 0.0 0.0 7.1250 0.0 -0.0 17.0393 21.5902 10.016
0.2698 18.3103 0.2110 -2.7527 -3.7192 10.1764 0.0000 0.0000 0.0000 -14.8608 -28.5777 -3.7075 0.7749 5.6204 15.6870 -2.1748 25.4869 -15.2997 0.2388 -3.1449 -8.6824 0.0000 0.0000 0.0000 0.0000 0.0000 0.0000 0.0000 0.0000 0.0000 -0.0000 -0.0000 0.0000 -0.0000 -0.0000 0.0000 2.9584 -0.2580 -4.5760 2.8486 -0.4547 -3.0116 1.2483 -0.2459 -0.5308 3.3307 0.9632 -8.4034 -6.6302 1.6302 10.2376 -2.4877 0.5390 4.5222 0.0000 -0.0000 0.0000 -0.5368 4.3346 -15.0107 11.7274 -19.3946 2.0109 7.0392 20.7121 -15.9183 0.0 0.0 0.0 -7.1250 0.0 0.0 -19.1320 45.1094 0.0537 0.0000 -0.0000 0.0000 -4.1034 7.5009 -1.9765 -16.4022 -26.0629 -3.8209 -3.1199 29.4302 -8.4596 0.0 0.0 0.0 7.1250 0.0 -0.0 17.0191 21.621 9.9904
0.2705 18.3113 0.2099 -2.7313 -3.7089 10.1422 0.0000 0.0000 0.0000 -14.9094 -28.5830 -3.6480 0.7720 5.6103 15.6579 -2.1749 25.4942 -15.3408 0.2407 -3.1575 -8.7175 0.0000 0.0000 0.0000 0.0000 0.0000 0.0000 0.0000 0.0000 0.0000 -0.0000 -0.0000 0.0000 -0.0000 -0.0000 0.0000 2.9343 -0.2575 -4.5683 2.8465 -0.4533 -2.9991 1.2595 -0.2448 -0.5220 3.3167 0.9637 -8.3875 -6.6366 1.6349 10.2612 -2.4873 0.5404 4.5270 -0.0000 -0.0000 0.0000 -0.5612 4.3026 -15.2843 11.8408 -19.5654 2.0487 6.9744 20.4856 -15.9258 0.0 0.0 0.0 -7.1250 0.0 0.0 -19.1920 45.1088 0.0536 -0.0000 -0.0000 0.0000 -4.0294 7.413 -1.6748 -16.5037 -26.1989 -3.8657 -3.1569 29.3557 -8.5765 0.0 0.0 0.0 7.1250 0.0 -0.0 16.9804 21.5086 10.0112
0.2704 18.3111 0.2092 -2.7351 -3.6991 10.1298 0.0000 0.0000 0.0000 -14.9243 -28.7005 -3.5736 0.7711 5.6069 15.6481 -2.1703 25.5223 -15.6347 0.2077 -2.9344 -8.0963 0.0000 0.0000 0.0000 0.0000 0.0000 0.0000 0.0000 0.0000 0.0000 -0.0000 -0.0000 0.0000 -0.0000 -0.0000 0.0000 2.9332 -0.2554 -4.5663 2.8475 -0.4499 -3.0090 1.2614 -0.2432 -0.5333 3.3317 0.9786 -8.3993 -6.6606 1.6600 10.3489 -2.4961 0.5506 4.5574 0.0000 -0.0000 0.0000 -0.5762 4.3057 -15.5858 11.9579 -19.7415 2.0881 6.913 20.1803 -15.9715 0.0 0.0 0.0 -7.1250 0.0 0.0 -19.2630 45.1449 0.0716 0.0000 -0.0000 0.0000 -3.9542 7.3395 -1.391 -16.5803 -26.3012 -3.8996 -3.2065 29.3112 -8.8018 0.0 0.0 0.0 7.1250 0.0 -0.0 16.9213 21.292 10.0606
0.2689 18.3110 0.2064 -2.7656 -3.6742 10.1110 0.0000 0.0000 0.0000 -14.8896 -28.7540 -3.5273 0.7691 5.6000 15.6281 -2.1537 25.4852 -15.8725 0.1694 -2.6511 -7.3088 0.0000 0.0000 0.0000 0.0000 0.0000 0.0000 0.0000 0.0000 0.0000 -0.0000 -0.0000 0.0000 -0.0000 -0.0000 0.0000 2.9237 -0.2748 -4.5284 2.8763 -0.4731 -3.0195 1.2958 -0.2547 -0.5649 3.3094 0.9939 -8.3820 -6.6844 1.6888 10.3914 -2.4982 0.5622 4.5690 -0.0000 0.0000 0.0000 -0.624 4.2784 -15.8182 12.0409 -19.866 2.1162 6.8772 19.867 -16.0237 0.0 0.0 0.0 -7.1250 0.0 0.0 -19.3137 45.19 0.0942 -0.0000 0.0000 0.0000 -3.9379 7.2659 -0.8749 -16.6519 -26.3967 -3.9313 -3.2603 29.0783 -8.9049 0.0 0.0 0.0 7.1250 0.0 -0.0 16.8728 21.1924 10.0692
0.2667 18.3107 0.2041 -2.7567 -3.6686 10.0881 0.0000 0.0000 0.0000 -14.8976 -28.7474 -3.4937 0.7656 5.5874 15.5917 -2.1654 25.5205 -15.7597 0.1814 -2.7434 -7.5653 0.0000 0.0000 0.0000 0.0000 0.0000 0.0000 0.0000 0.0000 0.0000 -0.0000 -0.0000 0.0000 -0.0000 -0.0000 0.0000 2.8710 -0.2842 -4.5014 2.8797 -0.4823 -3.0245 1.3286 -0.2587 -0.5846 3.3300 1.0015 -8.3027 -6.6892 1.6963 10.3480 -2.5025 0.5684 4.5429 0.0000 0.0000 0.0000 -0.627 4.2417 -16.0839 12.1082 -19.9667 2.1391 6.861 19.5518 -15.9643 0.0 0.0 0.0 -7.1250 0.0 0.0 -19.3063 45.1319 0.0653 0.0000 0.0000 0.0000 -3.8795 7.2043 -0.354 -16.7535 -26.5317 -3.9766 -3.181 28.8316 -8.8226 0.0 0.0 0.0 7.1250 0.0 -0.0 16.9369 21.2725 10.0786
0.2657 18.3115 0.2015 -2.7744 -3.6814 10.0526 0.0000 0.0000 0.0000 -14.8954 -28.7750 -3.4282 0.7630 5.5782 15.5654 -2.1934 25.6266 -15.6084 0.1994 -2.8751 -7.9313 0.0000 0.0000 0.0000 0.0000 0.0000 0.0000 0.0000 0.0000 0.0000 -0.0000 -0.0000 0.0000 -0.0000 -0.0000 0.0000 2.8739 -0.2582 -4.4669 2.8790 -0.4462 -3.0183 1.3278 -0.2408 -0.5976 3.3428 0.9818 -8.2481 -6.7053 1.6694 10.3196 -2.5112 0.5561 4.5239 -0.0000 -0.0000 0.0000 -0.636 4.1921 -16.3561 12.2048 -20.111 2.1722 6.6902 19.3583 -15.9924 0.0 0.0 0.0 -7.1250 0.0 0.0 -19.4677 45.1383 0.0691 -0.0000 -0.0000 0.0000 -3.8031 7.1054 -0.0392 -16.8305 -26.6338 -4.011 -3.0795 28.7459 -8.9027 0.0 0.0 0.0 7.1250 0.0 -0.0 16.9989 21.1973 10.1495
0.2651 18.3134 0.1971 -2.7583 -3.6310 10.1060 0.0000 0.0000 0.0000 -14.8808 -28.9717 -3.4435 0.7614 5.5726 15.5492 -2.2413 25.8307 -15.4803 0.2216 -3.0302 -8.3628 0.0000 0.0000 0.0000 0.0000 0.0000 0.0000 0.0000 0.0000 0.0000 -0.0000 -0.0000 0.0000 -0.0000 -0.0000 0.0000 2.8453 -0.2601 -4.5058 2.8750 -0.4488 -3.0381 1.3395 -0.2417 -0.5960 3.3708 0.9641 -8.2315 -6.7427 1.6459 10.3049 -2.5289 0.5439 4.5158 -0.0000 0.0000 0.0000 -0.6607 4.1614 -16.6351 12.3267 -20.2928 2.2143 6.6412 19.2251 -16.0916 0.0 0.0 0.0 -7.1250 0.0 0.0 -19.5476 45.2262 0.1136 -0.0000 0.0000 0.0000 -3.7343 6.9815 0.1878 -16.8563 -26.668 -4.0226 -3.1663 28.7388 -9.1517 0.0 0.0 0.0 7.1250 0.0 -0.0 16.9121 20.9574 10.1894
0.2636 18.3143 0.1921 -2.7827 -3.5414 10.1626 0.0000 0.0000 0.0000 -14.7908 -29.1097 -3.5164 0.7618 5.5738 15.5527 -2.2404 25.8317 -15.5138 0.2155 -2.9883 -8.2463 0.0000 0.0000 0.0000 0.0000 0.0000 0.0000 0.0000 0.0000 0.0000 -0.0000 -0.0000 0.0000 -0.0000 -0.0000 0.0000 2.8580 -0.2701 -4.5101 2.8723 -0.4608 -3.0841 1.3294 -0.2485 -0.6411 3.4209 0.9469 -8.2537 -6.7788 1.6244 10.3924 -2.5503 0.5317 4.5457 -0.0000 0.0000 0.0000 -0.6573 4.173 -16.9396 12.4369 -20.4566 2.2527 6.6907 19.0351 -16.1016 0.0 0.0 0.0 -7.1250 0.0 0.0 -19.5075 45.2416 0.121 -0.0000 0.0000 0.0000 -3.6163 6.9165 0.3522 -16.9182 -26.7498 -4.0504 -3.2552 28.7747 -9.4861 0.0 0.0 0.0 7.1250 0.0 -0.0 16.8156 20.6354 10.2545
